# xmcd
#
# Track frame offsets:
# 150
# 21796
# 37454
# 63109
# 86054
# 102930
# 123130
# 148709
# 162874
# 179901
# 197872
# 218318
# 240593
# 259296
# 279375
# 297224
# 313205
#
# Disc length: 4439 seconds
#
#
# Revision: 0
# Processed by: cddbd v1.5PL3 Copyright (c) Steve Scherf et al.
# Submitted via: FreeRIP 2.70 
#
DISCID=01115511
DTITLE=The Moody Blues - The Moody Blues
DYEAR=1900
DGENRE=Blues
TTITLE0=Your Wildest Dreams
TTITLE1=Voices In The Sky
TTITLE2=Question
TTITLE3=Isn't Life Strange
TTITLE4=No More Lies
TTITLE5=I Dreamed Last Night
TTITLE6=Siting At The Wheel
TTITLE7=Gimme A Little Somethin
TTITLE8=Driftwood
TTITLE9=Bless The Wings
TTITLE10=After You Came
TTITLE11=Talking Out Of Turn
TTITLE12=Watching And Waiting
TTITLE13=Highway
TTITLE14=Dear Diary
TTITLE15=A Simple Game
TTITLE16=Nights in White Satin
EXTD=
EXTT0=
EXTT1=
EXTT2=
EXTT3=
EXTT4=
EXTT5=
EXTT6=
EXTT7=
EXTT8=
EXTT9=
EXTT10=
EXTT11=
EXTT12=
EXTT13=
EXTT14=
EXTT15=
EXTT16=
PLAYORDER=
